<svg width="100" height="48" viewBox="0 0 100 48" fill="none" xmlns="http://www.w3.org/2000/svg">
<path d="M9 26.7346V30.3869C37.2606 28.7063 16.2433 27.8333 9 26.7346Z" fill="#B4B7C9"/>
<path d="M9 32.7695V36.356L9.23622 36.4151C30.7663 34.428 24.5864 33.7037 9 32.7695Z" fill="#B4B7C9"/>
<path d="M9 0.999756V12.7927C26.7193 12.1936 26.8068 11.1891 17.6176 9.97156L19.2705 7.96472C30.6156 9.70579 29.8962 12.5574 21.7495 13.9855C24.4793 14.9454 34.1553 16.7245 22.4577 20.242C24.3613 20.7592 35.0962 23.4165 21.7495 25.7903C23.8641 26.7453 35.0843 28.1149 22.2215 31.5749C25.5521 32.1219 34.1108 33.9465 22.8119 37.5954C27.0836 38.0423 27.5665 38.1905 28.7142 40.1927V47.8659H33.9084V0.999756H9Z" fill="#B4B7C9"/>
<path d="M9 21.1873V24.847C14.3159 23.8013 38.5803 23.377 9 21.1873Z" fill="#B4B7C9"/>
<path d="M9 14.9495V18.8257C25.6116 17.9321 31.224 16.7747 9 14.9495Z" fill="#B4B7C9"/>
<path d="M40.0099 13.4985H37.1758V12.9412H43.4478V13.4985H40.6143V21.0715H40.0099V13.4985Z" fill="#B4B7C9"/>
<path d="M44.9814 12.9412H45.5855V16.7045H50.789V12.9412H51.3931V21.0715H50.789V17.2616H45.5855V21.0715H44.9814V12.9412Z" fill="#B4B7C9"/>
<path d="M53.508 12.9412H59.2921V13.4985H54.1121V16.6927H58.7695V17.2504H54.1121V20.5142H59.3503V21.0715H53.5078V12.9412H53.508Z" fill="#B4B7C9"/>
<path d="M37.5977 25.7443H40.2957L41.902 31.0752L43.6789 25.7185H45.8772L47.6534 31.0752L49.2597 25.7443H51.9055L48.8255 35.0239H46.6008L44.7579 29.7199L42.9022 35.0239H40.6774L37.5977 25.7443Z" fill="#B4B7C9"/>
<path d="M51.9023 30.2749V30.2399C51.9023 27.4709 53.883 25.28 56.6876 25.28C59.9479 25.28 61.4547 27.6814 61.4547 30.4679C61.4547 30.6781 61.4547 30.9235 61.4375 31.1519H55.0927C55.3554 32.1857 56.1093 32.7114 57.1428 32.7114C57.9498 32.7114 58.563 32.4136 59.2466 31.7475L61.0864 33.2725C60.1754 34.4287 58.861 35.2001 56.9856 35.2001C54.0064 35.1999 51.9023 33.2022 51.9023 30.2749ZM58.3521 29.4514C58.2296 28.3992 57.5991 27.7331 56.6876 27.7331C55.8106 27.7331 55.2154 28.3992 55.0399 29.4514H58.3521Z" fill="#B4B7C9"/>
<path d="M63.2658 25.7458H67.9913C69.1498 25.7458 69.9657 26.0354 70.5055 26.5622C70.8738 26.9435 71.0977 27.4307 71.0977 28.0626V28.0888C71.0977 29.155 70.4921 29.7869 69.676 30.1424C70.7952 30.5107 71.5061 31.1426 71.5061 32.3933V32.4191C71.5061 33.9992 70.216 34.9599 68.0177 34.9599H63.2656V25.7458H63.2658ZM68.5835 28.5892C68.5835 28.0758 68.176 27.7995 67.4257 27.7995H65.7536V29.4183H67.3599C68.1366 29.4183 68.5835 29.155 68.5835 28.6154V28.5892ZM67.7018 31.2082H65.7539V32.9063H67.7282C68.5177 32.9063 68.9528 32.6036 68.9528 32.064V32.0378C68.9528 31.5376 68.5571 31.2082 67.7018 31.2082Z" fill="#B4B7C9"/>
<path d="M73.4768 25.7458H78.2023C79.3608 25.7458 80.1767 26.0354 80.7165 26.5622C81.0848 26.9435 81.3087 27.4307 81.3087 28.0626V28.0888C81.3087 29.155 80.7031 29.7869 79.8869 30.1424C81.0062 30.5107 81.7162 31.1426 81.7162 32.3933V32.4191C81.7162 33.9992 80.4268 34.9599 78.2287 34.9599H73.4766V25.7458H73.4768ZM78.7945 28.5892C78.7945 28.0758 78.387 27.7995 77.6367 27.7995H75.9646V29.4183H77.5709C78.3467 29.4183 78.7945 29.155 78.7945 28.6154V28.5892ZM77.9125 31.2082H75.9646V32.9063H77.939C78.7285 32.9063 79.1633 32.6036 79.1633 32.064V32.0378C79.1633 31.5376 78.7688 31.2082 77.9125 31.2082Z" fill="#B4B7C9"/>
<path d="M85.2331 31.5114L81.7188 25.7458H84.6282L86.5233 29.1022L88.4318 25.7458H91.2888L87.7863 31.472V34.9599H85.2334V31.5114H85.2331Z" fill="#B4B7C9"/>
<path d="M41.763 38.8982H42.3438L46.13 47.0868H45.4684L44.4346 44.8101H39.6373L38.6035 47.0868H37.9766L41.763 38.8982ZM44.1791 44.264L42.0422 39.5603L39.893 44.264H44.1791Z" fill="#B4B7C9"/>
<path d="M46.0859 38.9532H46.7597L49.3148 46.1893L51.6963 38.9294H52.1604L54.5421 46.1893L57.0973 38.9532H57.7242L54.7743 47.1418H54.2864L51.905 40.0796L49.5238 47.1418H49.0359L46.0859 38.9532Z" fill="#B4B7C9"/>
<path d="M61.6614 38.9031H62.2422L66.0284 47.0912H65.3668L64.333 44.815H59.5357L58.5019 47.0912H57.875L61.6614 38.9031ZM64.0776 44.2689L61.9406 39.5652L59.7914 44.2689H64.0776Z" fill="#B4B7C9"/>
<path d="M67.4219 38.9529H70.8368C71.8359 38.9529 72.6375 39.2663 73.1254 39.754C73.5087 40.1376 73.7409 40.6832 73.7409 41.264V41.2873C73.7409 42.6459 72.7304 43.4249 71.3594 43.6103L74.0425 47.0835H73.2756L70.6857 43.7153H68.026V47.0835H67.4219V38.9529ZM70.7672 43.169C72.1261 43.169 73.1363 42.4836 73.1363 41.3108V41.2873C73.1363 40.1958 72.2774 39.51 70.8019 39.51H68.026V43.169H70.7672Z" fill="#B4B7C9"/>
<path d="M75.5391 38.9529H78.2456C80.8008 38.9529 82.5665 40.7065 82.5665 42.995V43.0178C82.5665 45.3064 80.8008 47.0835 78.2456 47.0835H75.5391V38.9529ZM76.1432 39.51V46.5257H78.2456C80.5104 46.5257 81.9389 44.9808 81.9389 43.0414V43.0178C81.9389 41.0903 80.5104 39.5102 78.2456 39.5102H76.1432V39.51Z" fill="#B4B7C9"/>
<path d="M83.6797 45.9015L84.0746 45.4486C84.9698 46.2734 85.7942 46.6563 86.9903 46.6563C88.2092 46.6563 89.0457 45.9711 89.0457 45.0422V45.0187C89.0457 44.1593 88.5935 43.66 86.7469 43.2881C84.7958 42.8931 84.0048 42.2311 84.0048 40.9996V40.9763C84.0048 39.7684 85.1091 38.8396 86.6184 38.8396C87.804 38.8396 88.5816 39.1645 89.4058 39.8266L89.0231 40.3028C88.2563 39.6407 87.4894 39.3848 86.5956 39.3848C85.3993 39.3848 84.6098 40.0704 84.6098 40.9181V40.9416C84.6098 41.8009 85.0515 42.3235 86.9782 42.7185C88.8595 43.1016 89.6507 43.7755 89.6507 44.9602V44.9835C89.6507 46.2958 88.524 47.2019 86.9556 47.2019C85.655 47.2022 84.6552 46.7727 83.6797 45.9015Z" fill="#B4B7C9"/>
</svg>
