<svg width="83" height="25" viewBox="0 0 83 25" fill="none" xmlns="http://www.w3.org/2000/svg">
<path d="M70.1417 3.65533C70.4502 3.65533 70.7402 3.73356 70.9934 3.871C71.5505 4.17366 71.9287 4.76388 71.9287 5.44231V10.5191H76.8432C77.8301 10.5191 78.6301 11.3191 78.6301 12.306C78.6301 13.293 77.8301 14.0933 76.8432 14.0933H71.9287V18.911C71.9287 19.8979 71.1287 20.698 70.1417 20.698C69.9341 20.698 56.4544 20.6926 56.4544 20.6926C55.4673 20.6926 54.6672 19.8926 54.6672 18.9054V12.2249H54.6714C54.7143 11.276 55.4948 10.5191 56.4544 10.5191H68.3548V7.22928H54.6192L48.1003 19.3255C47.9962 19.8609 47.6514 20.3427 47.1219 20.5971C46.8726 20.717 46.6092 20.7738 46.3499 20.7738C45.7302 20.7738 45.1336 20.4489 44.8061 19.887C44.7401 19.7863 44.684 19.6798 44.6397 19.5692L39.4915 9.4639L34.2834 19.344C34.058 19.8733 33.7285 20.3424 33.199 20.5971C32.9497 20.717 32.6862 20.7738 32.4272 20.7738C31.8073 20.7738 31.2109 20.4492 30.8832 19.8872C30.8169 19.7863 30.7609 19.6796 30.7163 19.5685L24.4301 7.22903H13.931V10.5188H22.4196C23.4066 10.5188 24.2066 11.3189 24.2066 12.3058C24.2066 13.2927 23.4066 14.093 22.4196 14.093H13.931V19.0077C13.931 19.9947 13.1309 20.7947 12.144 20.7947C11.1571 20.7947 10.3568 19.9947 10.3568 19.0077V14.0933H5.44255C4.45561 14.0933 3.65533 13.2932 3.65533 12.306C3.65533 11.3191 4.45536 10.5191 5.44255 10.5191H10.3568V5.44231C10.3568 4.76388 10.735 4.17366 11.2921 3.871C11.5453 3.73356 11.8355 3.65533 12.144 3.65533H25.4657C25.7555 3.65533 26.0284 3.72576 26.2704 3.84834C26.6442 4.01453 26.9634 4.30818 27.1545 4.70563L32.4233 15.0483L37.7089 5.17035C37.9748 4.6296 38.122 4.14369 38.6929 3.86905C38.9422 3.74915 39.2057 3.69237 39.4647 3.69237C39.9067 3.69237 40.3371 3.85735 40.6666 4.15563C40.9921 4.41028 41.1427 4.58257 41.3662 5.01536L46.3462 15.048L51.9357 4.67737C52.0812 4.42198 52.2808 4.21704 52.5108 4.06668C52.8203 3.80959 53.218 3.65485 53.652 3.65485H70.1417V3.65533ZM58.1605 17.1184H68.3548V14.0933H58.1603V17.1184H58.1605ZM70.1417 0H53.652C52.4545 0 51.286 0.398188 50.3383 1.12511C49.6933 1.58349 49.1496 2.18321 48.759 2.86992L48.738 2.90648L48.7181 2.94352L46.4376 7.17469C46.4376 7.17469 43.7902 1.99167 43.0218 1.35978C42.0322 0.506142 40.7745 0.0375281 39.4647 0.0375281C38.6552 0.0375281 37.8403 0.223463 37.1085 0.57535C35.69 1.25743 34.9053 2.50756 34.2361 3.97993L32.5144 7.17445L30.4248 3.07267C29.8765 1.96121 28.9617 1.06809 27.8376 0.54562C27.1002 0.188372 26.2821 0 25.4657 0H12.144C11.2389 0 10.3412 0.227849 9.54749 0.658935C7.79195 1.61249 6.70145 3.44527 6.70145 5.44231V6.86374H5.44255C2.44152 6.86374 0 9.30526 0 12.306C0 15.3071 2.44152 17.7484 5.44255 17.7484H6.70145V19.0077C6.70145 22.0085 9.14297 24.45 12.144 24.45C15.1448 24.45 17.5863 22.0085 17.5863 19.0077V17.7484H22.4196C23.4655 17.7484 24.4437 17.4518 25.274 16.9383L27.4048 21.1208C27.5115 21.3598 27.636 21.5923 27.7766 21.8145C28.759 23.43 30.5315 24.4291 32.4272 24.4291C33.237 24.4291 34.0519 24.2429 34.7834 23.891C36.111 23.2528 37.2642 22.1754 37.8532 20.7947L39.4011 17.3377L41.3292 21.122C41.4354 21.3598 41.559 21.5908 41.6991 21.8121C42.6811 23.429 44.4542 24.4288 46.3506 24.4288C47.1604 24.4288 47.975 24.2427 48.7068 23.891C49.9511 23.293 50.9183 22.2339 51.4162 20.9621C52.2291 22.9465 54.1818 24.3477 56.4552 24.3477L70.1424 24.3516C73.1432 24.3516 75.5848 22.0088 75.5848 19.0077V17.7484H76.8439C79.8447 17.7484 82.2862 15.3071 82.2862 12.306C82.2862 9.30526 79.8447 6.86374 76.8439 6.86374H75.5848V5.44231C75.5848 3.44527 74.4942 1.61249 72.739 0.658935C71.9445 0.227849 71.0468 0 70.1417 0Z" fill="#B4B7C9"/>
</svg>
